<?xml version="1.0" encoding="utf-8"?>
<!-- Generator: Adobe Illustrator 27.3.1, SVG Export Plug-In . SVG Version: 6.00 Build 0)  -->
<svg version="1.1" id="Layer_1" x="0px" y="0px"
	 viewBox="0 0 186.56 200.08" style="enable-background:new 0 0 186.56 200.08;" xml:space="preserve">
<style type="text/css">
	.st0{fill:#D6DF2B;}
</style>
<g>
	<g>
		<circle class="st0" cx="101.32" cy="31.58" r="16.97"/>
	</g>
	<g>
		<circle class="st0" cx="146.99" cy="14.61" r="12.18"/>
	</g>
	<g>
		<circle class="st0" cx="158.8" cy="66.58" r="24"/>
	</g>
	<path class="st0" d="M163.28,102.29c-1.47,0.18-2.96,0.29-4.48,0.29c-19.85,0-36-16.15-36-36c0-7.55,2.34-14.56,6.33-20.35
		c-0.68-0.47-1.37-0.93-2.07-1.38c-4.82,9.31-14.55,15.7-25.74,15.7c-15.6,0-28.35-12.39-28.94-27.85
		c-39.36,5.34-69.7,39.06-69.7,79.88c0,44.54,36.1,80.64,80.64,80.64s80.64-36.1,80.64-80.64
		C163.96,109.09,163.71,105.66,163.28,102.29z M83.32,142.58c-16.36,0-29.62-13.26-29.62-29.62s13.26-29.62,29.62-29.62
		c16.36,0,29.62,13.26,29.62,29.62S99.68,142.58,83.32,142.58z"/>
</g>
</svg>
